<?xml version="1.0" standalone="no"?><!DOCTYPE svg PUBLIC "-//W3C//DTD SVG 1.1//EN" "http://www.w3.org/Graphics/SVG/1.1/DTD/svg11.dtd"><svg t="1679455098965" class="icon" viewBox="0 0 1024 1024" version="1.1" xmlns="http://www.w3.org/2000/svg" p-id="6188" xmlns:xlink="http://www.w3.org/1999/xlink" width="200" height="200"><path d="M352 32c57.438 0 112 46.562 112 104l-0.002 143.971C476.312 274.836 489.825 272 504 272c32.167 0 60.923 14.604 80 37.543C603.077 286.603 631.833 272 664 272c38.095 0 71.407 20.483 89.522 51.036C771.366 311.016 792.864 304 816 304c54.217 0 99.436 38.524 109.778 89.691 0.165 0.25 0.32 0.563 0.467 0.942l0.123 0.34 0.119 0.37c0.058 0.194 0.115 0.4 0.17 0.617l0.107 0.45 0.103 0.481 0.05 0.253 0.096 0.529 0.092 0.56 0.088 0.591 0.083 0.624 0.115 0.993 0.072 0.702 0.067 0.734c0.313 9.287 0.47 13.994 0.47 14.123l-82.038 496.632C837.888 958.53 798.016 992 751.414 992H352a96 96 0 0 1-83.153-48.025L78.634 574.07C49.915 524.33 66.958 460.723 116.7 432.005l13.856-8c35.308-20.385 77.6-17.714 109.442 3.342L240 136c0-57.438 46.562-104 104-104h8z m0 64c-26.245 0-47.57 21.063-47.994 47.206L304 144v380.99c0 17.673-14.328 32-32 32a32 32 0 0 1-27.713-16L221.198 501c-13.255-22.959-42.611-30.825-65.57-17.57-22.728 13.123-30.664 42.026-17.96 64.879L324.133 911.73A32 32 0 0 0 352 928h404.892c15.643 0 28.993-11.31 31.565-26.74L864 416c0-26.51-21.49-48-48-48-26.245 0-47.57 21.063-47.994 47.206L768 416v80c0 17.673-14.327 32-32 32-17.496 0-31.713-14.042-31.996-31.47L704 496V376c0-22.091-17.909-40-40-40-21.87 0-39.641 17.552-39.995 39.339L624 376v120c0 17.673-14.327 32-32 32-17.496 0-31.713-14.042-31.996-31.47L560 496V384c0-26.51-21.49-48-48-48-26.245 0-47.57 21.063-47.994 47.206L464 384v112c0 17.673-14.327 32-32 32-17.496 0-31.713-14.042-31.996-31.47L400 496V144c0-26.51-21.49-48-48-48z" fill="#000000" p-id="6189"></path></svg>