<?xml version="1.0" standalone="no"?><!DOCTYPE svg PUBLIC "-//W3C//DTD SVG 1.1//EN" "http://www.w3.org/Graphics/SVG/1.1/DTD/svg11.dtd"><svg t="1679454907298" class="icon" viewBox="0 0 1024 1024" version="1.1" xmlns="http://www.w3.org/2000/svg" p-id="2662" xmlns:xlink="http://www.w3.org/1999/xlink" width="200" height="200"><path d="M217.492988 220.340337l567.402821 188.863439-151.121859 79.490425-62.956867 33.153074 50.349735 50.265824 167.33103 167.086459-51.90516 52.063773L569.425386 623.850437l-50.345642-50.42546-33.153074 63.033615-79.245855 150.877289L217.492988 220.340337M191.620737 158.369937c-3.684926 0-7.53051 0.572028-11.380188 1.719154-18.826787 6.060019-28.980032 26.197662-22.920012 45.51666l211.536834 634.042567c2.537799 8.837272 8.677637 17.023722 17.520025 21.856797 5.40408 2.946099 11.132548 4.335748 16.864086 4.335748 12.851703 0 25.295106-7.123234 31.434943-19.074428l97.581456-185.830359 177.155792 177.48018 2.046612 1.803066c6.875594 6.875594 16.045441 10.311857 25.215288 10.311857s18.3356-3.436262 25.131377-10.311857l75.481112-75.724659c13.998829-13.998829 13.998829-36.347836 0-50.345642L658.085658 535.190165l185.585789-97.581456c8.18645-4.585435 14.246469-11.132548 17.276479-20.629853 6.383384-18.827811-4.093225-38.885636-22.349007-44.941562L202.346009 160.089092C198.908724 158.941965 195.306686 158.369937 191.620737 158.369937" fill="#333333" p-id="2663"></path></svg>